<?xml version="1.0" standalone="no"?>
<!DOCTYPE svg PUBLIC "-//W3C//DTD SVG 20010904//EN"
 "http://www.w3.org/TR/2001/REC-SVG-20010904/DTD/svg10.dtd">
<svg version="1.0" xmlns="http://www.w3.org/2000/svg"
 width="640.000000pt" height="640.000000pt" viewBox="0 0 640.000000 640.000000"
 preserveAspectRatio="xMidYMid meet">

<g transform="translate(0.000000,640.000000) scale(0.100000,-0.100000)"
fill="#000000" stroke="none">
<path d="M2278 4833 l-38 -4 17 -32 c42 -82 114 -140 188 -152 22 -4 69 -16
104 -26 57 -17 98 -19 423 -19 294 0 364 -3 387 -14 32 -17 491 -529 491 -548
0 -5 -206 -8 -458 -8 l-459 0 -159 -326 c-87 -180 -164 -329 -171 -331 -17 -7
-97 51 -128 92 -33 43 -61 115 -70 183 -14 103 6 162 162 475 79 160 140 293
136 297 -4 4 -53 5 -109 2 l-101 -4 -126 -253 c-69 -139 -133 -277 -142 -306
-72 -242 24 -501 240 -645 61 -41 207 -124 219 -124 3 0 47 81 96 180 50 100
94 179 98 177 4 -3 59 -34 122 -70 368 -208 529 -315 621 -414 117 -125 208
-315 247 -518 l18 -90 97 -3 97 -3 0 33 c-1 46 -34 192 -59 258 -12 30 -21 60
-21 65 1 26 198 -229 258 -333 72 -124 100 -180 95 -186 -7 -7 -2103 -8 -2103
-1 0 3 81 168 180 367 99 199 180 365 180 368 0 5 -165 90 -175 90 -3 0 -40
-73 -84 -162 -43 -90 -136 -280 -206 -423 -127 -259 -205 -423 -205 -431 0 -2
612 -4 1360 -4 874 0 1360 3 1360 10 0 5 -23 62 -50 127 -200 465 -459 779
-856 1036 -91 58 -606 364 -732 433 -62 34 -62 36 1 159 l42 80 457 0 c251 0
458 2 461 5 14 16 118 222 115 230 -2 4 -21 28 -43 52 -36 38 -120 134 -418
473 -93 106 -118 129 -172 157 -84 44 -121 48 -498 48 -338 0 -360 1 -397 20
-33 17 -57 20 -147 18 -59 -1 -125 -3 -145 -5z"/>
<path d="M2884 4388 c22 -111 177 -173 287 -115 43 23 89 79 103 125 l7 22
-202 0 -201 0 6 -32z"/>
<path d="M3010 3032 c-144 -48 -192 -104 -347 -410 -68 -133 -123 -249 -123
-257 0 -13 15 -15 103 -13 l102 3 101 198 c55 108 114 211 130 228 89 96 240
89 316 -15 27 -37 29 -47 26 -99 -4 -59 -30 -109 -60 -115 -9 -2 -38 21 -66
50 l-50 53 -44 -50 c-90 -102 -90 -82 -1 -185 l78 -91 50 7 c59 7 138 41 181
77 41 35 90 129 103 198 12 71 0 163 -30 227 -34 70 -125 155 -196 182 -80 31
-199 36 -273 12z"/>
</g>
</svg>
